# xmcd
#
# Track frame offsets:
#	150
#	19483
#	39396
#	58742
#	78756
#	96894
#	117074
#	137415
#
# Disc length: 2247 seconds
#
# Revision: 0
# Processed by: cddbd v1.5.2PL0 Copyright (c) Steve Scherf et al.
# Submitted via: EasyCDDAExtractor 15.3.0.1
#
DISCID=5d08c508
DTITLE=Kara Grainger - L.A. Blues
DYEAR=2011
DGENRE=Blues
TTITLE0=C'mon In My Kitchen
TTITLE1=Dust My Broom
TTITLE2=Voodoo Woman
TTITLE3=Babe, What You Want Me To Do
TTITLE4=I'll Make Love To You Anytime
TTITLE5=Holding On
TTITLE6=Sky Is Falling
TTITLE7=Come To Mama
EXTD=
EXTT0=
EXTT1=
EXTT2=
EXTT3=
EXTT4=
EXTT5=
EXTT6=
EXTT7=
PLAYORDER=
